<?xml version="1.0" encoding="utf-8"?>
<!-- Generator: Adobe Illustrator 16.0.0, SVG Export Plug-In . SVG Version: 6.00 Build 0)  -->
<!DOCTYPE svg PUBLIC "-//W3C//DTD SVG 1.1//EN" "http://www.w3.org/Graphics/SVG/1.1/DTD/svg11.dtd">
<svg version="1.1" id="Layer_1" xmlns="http://www.w3.org/2000/svg" xmlns:xlink="http://www.w3.org/1999/xlink" x="0px" y="0px"
	 width="335.986px" height="235.19px" viewBox="0 0 335.986 235.19" enable-background="new 0 0 335.986 235.19"
	 xml:space="preserve">
<g>
	<g>
		<rect y="-0.148" fill="#0E3C54" width="335.986" height="235.19"/>
	</g>
</g>
<g>
	<g>
		<path fill="none" stroke="#FFFFFF" stroke-width="2" stroke-linejoin="round" stroke-miterlimit="10" d="M119.756,23.332
			c5.621,0,11.24,0,16.863,0"/>
	</g>
	
		<line fill="none" stroke="#FFFFFF" stroke-width="2" stroke-linejoin="round" stroke-miterlimit="10" x1="141.369" y1="23.332" x2="150.875" y2="23.332"/>
</g>
<g>
	<g>
		<path fill="none" stroke="#FFFFFF" stroke-width="2" stroke-linejoin="round" stroke-miterlimit="10" d="M137.086,31.871
			c-4.186,0-8.369,0-12.555,0"/>
	</g>
	
		<line fill="none" stroke="#FFFFFF" stroke-width="2" stroke-linejoin="round" stroke-miterlimit="10" x1="120.996" y1="31.871" x2="113.92" y2="31.871"/>
</g>
<g>
	<g>
		<path fill="none" stroke="#FFFFFF" stroke-width="2" stroke-linejoin="round" stroke-miterlimit="10" d="M310.745,104.029
			c-5.622,0-11.24,0-16.863,0"/>
	</g>
	
		<line fill="none" stroke="#FFFFFF" stroke-width="2" stroke-linejoin="round" stroke-miterlimit="10" x1="289.131" y1="104.029" x2="279.626" y2="104.029"/>
</g>
<g>
	<g>
		<path fill="none" stroke="#FFFFFF" stroke-width="2" stroke-linejoin="round" stroke-miterlimit="10" d="M293.415,95.49
			c4.186,0,8.369,0,12.555,0"/>
	</g>
	
		<line fill="none" stroke="#FFFFFF" stroke-width="2" stroke-linejoin="round" stroke-miterlimit="10" x1="309.505" y1="95.49" x2="316.581" y2="95.49"/>
</g>
<g>
	<g>
		<path fill="none" stroke="#FFFFFF" stroke-width="2" stroke-linejoin="round" stroke-miterlimit="10" d="M90.021,204.432
			c5.621,0,11.24,0,16.862,0"/>
	</g>
	
		<line fill="none" stroke="#FFFFFF" stroke-width="2" stroke-linejoin="round" stroke-miterlimit="10" x1="111.634" y1="204.432" x2="121.139" y2="204.432"/>
</g>
<g>
	<g>
		<path fill="none" stroke="#FFFFFF" stroke-width="2" stroke-linejoin="round" stroke-miterlimit="10" d="M66.34,212.544
			c5.621,0,11.24,0,16.863,0"/>
	</g>
	
		<line fill="none" stroke="#FFFFFF" stroke-width="2" stroke-linejoin="round" stroke-miterlimit="10" x1="87.953" y1="212.544" x2="97.459" y2="212.544"/>
</g>
<g>
	
		<line fill="none" stroke="#FFFFFF" stroke-width="2" stroke-linejoin="round" stroke-miterlimit="10" x1="261.605" y1="21.941" x2="268.926" y2="29.262"/>
	
		<line fill="none" stroke="#FFFFFF" stroke-width="2" stroke-linejoin="round" stroke-miterlimit="10" x1="261.605" y1="29.262" x2="268.926" y2="21.941"/>
</g>
<g>
	
		<line fill="none" stroke="#FFFFFF" stroke-width="2" stroke-linejoin="round" stroke-miterlimit="10" x1="37.942" y1="119.107" x2="45.264" y2="126.428"/>
	
		<line fill="none" stroke="#FFFFFF" stroke-width="2" stroke-linejoin="round" stroke-miterlimit="10" x1="37.942" y1="126.428" x2="45.264" y2="119.107"/>
</g>
<g>
	
		<line fill="none" stroke="#FFFFFF" stroke-width="2" stroke-linejoin="round" stroke-miterlimit="10" x1="296.032" y1="126.945" x2="303.354" y2="134.266"/>
	
		<line fill="none" stroke="#FFFFFF" stroke-width="2" stroke-linejoin="round" stroke-miterlimit="10" x1="296.032" y1="134.266" x2="303.354" y2="126.945"/>
</g>
<g>
	<path fill="#24A8BF" d="M181.301,140.642h-12.818h-12.82c0,0,2.34,14.016-8.139,15.465l20.959,0.001l20.957-0.001
		C178.962,154.657,181.301,140.642,181.301,140.642z"/>
	<rect x="146.278" y="155.227" fill="#B8BE33" width="44.409" height="2.707"/>
	<path fill="#3596DA" d="M237.487,138.401c0,1.686-1.367,3.052-3.054,3.052H102.529c-1.685,0-3.051-1.366-3.051-3.052V56.105
		c0-1.686,1.366-3.052,3.051-3.052h131.904c1.687,0,3.054,1.366,3.054,3.052V138.401z"/>
	<rect x="102.529" y="56.297" fill="#FAF9F9" width="131.451" height="71.422"/>
	<path fill="#B8BE33" d="M99.479,131.382v7.02c0,1.686,1.366,3.052,3.051,3.052h131.904c1.687,0,3.054-1.366,3.054-3.052v-7.02
		H99.479z"/>
</g>
<g>
	<path fill="#3596DA" d="M57.446,198.354c0,2.17-1.761,3.93-3.932,3.93H32.289c-2.169,0-3.929-1.76-3.929-3.93V151.1
		c0-2.172,1.76-3.931,3.929-3.931h21.226c2.171,0,3.932,1.759,3.932,3.931V198.354z"/>
	<circle fill="#919191" cx="42.903" cy="197.3" r="2.392"/>
	<circle fill="#032E4F" cx="42.903" cy="149.987" r="1.196"/>
	<rect x="29.868" y="152.326" fill="#ECF0F1" width="26.069" height="40.741"/>
</g>
<g>
	<path fill="#3596DA" d="M131.394,178.538c0.003,1.261-1.017,2.284-2.276,2.286l-60.196,0.119c-1.26,0.002-2.282-1.017-2.287-2.275
		L66.46,90.262c-0.003-1.258,1.016-2.283,2.275-2.285l60.197-0.12c1.26-0.003,2.283,1.019,2.286,2.276L131.394,178.538z"/>
	<rect x="70.931" y="94.021" fill="#FAF9F9" width="55.993" height="73.846"/>
	<circle fill="#A8A8A8" cx="99.005" cy="173.789" r="4.333"/>
	<circle fill="#032E4F" cx="98.841" cy="91.201" r="1.193"/>
</g>
<path fill-rule="evenodd" clip-rule="evenodd" fill="#FAF9F9" d="M49.475,90.397c-1.234-1.611-3.173-2.655-5.346-2.655h-0.098
	c0.5-0.314,0.963-0.686,1.379-1.104c1.441-1.439,2.332-3.429,2.332-5.628v-0.006c0-2.194-0.891-4.182-2.332-5.628
	c-1.441-1.438-3.43-2.324-5.625-2.324V73.05h-0.002h-0.004v0.003c-2.194,0-4.188,0.886-5.627,2.324
	c-1.442,1.446-2.332,3.434-2.332,5.631v0.003v0.003c0,2.196,0.89,4.186,2.332,5.625c0.416,0.418,0.881,0.789,1.379,1.104h-0.098
	c-3.701,0-6.732,3.031-6.732,6.732v6.732h20.773h1.39v-6.732C50.864,92.949,50.345,91.531,49.475,90.397z"/>
<path fill-rule="evenodd" clip-rule="evenodd" fill="#FAF9F9" d="M58.936,61.664c-2.68,0-5.043,1.345-6.461,3.395
	c-0.871,1.265-1.381,2.797-1.381,4.451c0,1.65,0.51,3.181,1.381,4.449c0.825,1.194,1.973,2.146,3.314,2.732
	c0.179,0.477,0.291,0.982,0.27,1.504c-0.075,2.063-3.133,2.368-3.133,2.368s1.215,0.209,3.812-0.784
	c4.141-1.584,10.039-5.422,10.039-10.27C66.777,65.179,63.264,61.664,58.936,61.664z"/>
<g id="email">
	<path fill="#174F78" d="M245.838,45.146l8.316,3.231v48.878c0,2.772-2.244,5.015-5.012,5.015h-67.057
		c-2.768,0-5.01-2.242-5.01-5.015V48.377l8.312-2.539"/>
	<path fill="#FFFFFF" d="M190.889,79.092c-2.77,0-5.039-2.268-5.039-5.039V30.227c0-2.771,2.27-5.038,5.039-5.038h49.449
		c2.772,0,5.041,2.268,5.041,5.038v43.826c0,2.771-2.269,5.039-5.041,5.039H190.889z"/>
	<g>
		<rect x="206.312" y="36.844" fill="#CFCFCF" width="19.957" height="1.93"/>
		<rect x="206.312" y="44.173" fill="#CFCFCF" width="30.906" height="1.931"/>
		<rect x="191.479" y="51.504" fill="#CFCFCF" width="45.74" height="1.929"/>
		<rect x="191.479" y="58.833" fill="#CFCFCF" width="45.74" height="1.93"/>
		<rect x="191.479" y="66.164" fill="#CFCFCF" width="45.74" height="1.928"/>
	</g>
	<path fill="#3596DA" d="M208.494,73.107l-31.08,25.923c0.713,1.888,2.529,3.239,4.672,3.239h67.057c2.141,0,3.958-1.352,4.67-3.239
		l-30.517-25.923H208.494z"/>
	<g>
		<path fill="#2A7FB5" d="M223.133,73.24l30.68,25.79c-0.094,0.248-0.211,0.488-0.342,0.72l0.008,0.01
			c0.428-0.738,0.676-1.59,0.676-2.505V48.384L223.133,73.24z"/>
		<path fill="#2A7FB5" d="M177.414,99.03l30.933-25.79l-31.271-24.856v48.871c0,0.915,0.248,1.767,0.67,2.505l0.012-0.01
			C177.627,99.519,177.51,99.278,177.414,99.03z"/>
	</g>
	<rect x="191.479" y="36.67" fill="#00C9F0" width="9.219" height="9.218"/>
</g>
<g>
	<path fill="#E35437" d="M93.723,44.991c0.004-0.104,0.018-0.204,0.018-0.312c0-6.254-4.322-11.483-10.137-12.904
		c-1.603-7.624-8.363-13.349-16.463-13.349c-7.311,0-13.514,4.669-15.836,11.185c-1.317-0.432-2.723-0.672-4.188-0.672
		c-7.424,0-13.443,6.021-13.443,13.445c0,0.895,0.1,1.763,0.271,2.606H93.723z"/>
</g>
<g>
	<path fill="#B8BE33" d="M308.906,77.978c0.003-0.104,0.016-0.204,0.016-0.312c0-6.254-4.321-11.483-10.137-12.904
		c-1.602-7.624-8.363-13.349-16.463-13.349c-7.31,0-13.513,4.669-15.835,11.185c-1.317-0.432-2.723-0.672-4.187-0.672
		c-7.425,0-13.445,6.021-13.445,13.445c0,0.895,0.102,1.763,0.272,2.606H308.906z"/>
</g>
<g>
	<path fill="#DCDBDD" d="M300.373,189.601c0,7.265-5.889,13.154-13.154,13.154l0,0c-7.266,0-13.156-5.89-13.156-13.154v-14.784
		c0-7.267,5.891-13.156,13.156-13.156l0,0c7.266,0,13.154,5.89,13.154,13.156V189.601z"/>
	<path fill="#FFFFFF" d="M298.334,175.356c-0.307-5.88-5.158-10.557-11.115-10.557c-5.958,0-10.808,4.677-11.117,10.557H298.334z"/>
	<path fill="#4E4E4E" d="M289.247,178.931c0,0.942-0.909,1.705-2.028,1.705l0,0c-1.12,0-2.029-0.763-2.029-1.705v-7.147
		c0-0.942,0.909-1.706,2.029-1.706l0,0c1.119,0,2.028,0.764,2.028,1.706V178.931z"/>
</g>
<polyline fill="none" stroke="#FFFFFF" stroke-width="2" stroke-linecap="round" stroke-linejoin="round" stroke-miterlimit="10" points="
	287.918,163.104 287.918,141.194 251.604,141.194 251.604,126.895 267.917,126.895 267.809,113.079 238.644,113.079 "/>
<g>
	<g>
		<polygon fill-rule="evenodd" clip-rule="evenodd" fill="#6D808A" points="105.129,136.057 110.577,130.607 105.129,125.159 
			103.572,126.717 107.464,130.607 103.572,134.498 		"/>
	</g>
	<g>
		<polygon fill-rule="evenodd" clip-rule="evenodd" fill="#6D808A" points="93.735,125.157 88.287,130.606 93.735,136.055 
			95.292,134.498 91.4,130.606 95.292,126.717 		"/>
	</g>
	<rect x="76.65" y="118.361" fill="#6D808A" width="5.191" height="3.052"/>
	<rect x="76.65" y="126.938" fill="#00E0F9" width="5.191" height="3.051"/>
	<rect x="76.65" y="135.514" fill="#F7A934" width="5.191" height="3.051"/>
	<rect x="76.65" y="144.09" fill="#6D808A" width="5.191" height="3.051"/>
	<rect x="76.65" y="152.665" fill="#00E0F9" width="5.191" height="3.052"/>
	<rect x="116.303" y="129.675" fill="#00E0F9" width="4.969" height="1.862"/>
	<rect x="87.58" y="118.361" fill="#00E0F9" width="33.691" height="1.863"/>
	<rect x="88.287" y="145.642" fill="#00E0F9" width="32.984" height="1.862"/>
	<rect x="100.223" y="151.325" fill="#F7A934" width="20.709" height="1.862"/>
	<rect x="116.303" y="123.694" fill="#6D808A" width="4.969" height="1.862"/>
	<rect x="113.215" y="155.809" fill="#00E0F9" width="8.057" height="1.862"/>
	<rect x="116.303" y="135.137" fill="#6D808A" width="4.969" height="1.863"/>
	<rect x="88.287" y="155.809" fill="#6D808A" width="20.709" height="1.862"/>
</g>
<rect x="77.223" y="100.76" fill="#00E0F9" width="44.621" height="12.333"/>
<g>
	<path fill="#E35437" d="M259.192,206.185c0,2.424-1.821,4.388-4.069,4.388H145.042c-2.247,0-4.069-1.964-4.069-4.388v-31.937
		c0-2.424,1.822-4.388,4.069-4.388h110.081c2.248,0,4.069,1.964,4.069,4.388V206.185z"/>
	<g>
		<g>
			<g>
				<path fill="#FFFFFF" d="M152.367,178.437c0,1.121-0.877,2.042-1.947,2.042h-1.925c-1.071,0-1.948-0.921-1.948-2.042v-2.024
					c0-1.122,0.877-2.042,1.948-2.042h1.925c1.07,0,1.947,0.92,1.947,2.042V178.437z"/>
			</g>
			<g>
				<path fill="#FFFFFF" d="M162.371,178.437c0,1.121-0.875,2.042-1.945,2.042h-1.925c-1.071,0-1.946-0.921-1.946-2.042v-2.024
					c0-1.122,0.875-2.042,1.946-2.042h1.925c1.07,0,1.945,0.92,1.945,2.042V178.437z"/>
			</g>
			<g>
				<path fill="#FFFFFF" d="M172.379,178.437c0,1.121-0.877,2.042-1.947,2.042h-1.926c-1.068,0-1.947-0.921-1.947-2.042v-2.024
					c0-1.122,0.879-2.042,1.947-2.042h1.926c1.07,0,1.947,0.92,1.947,2.042V178.437z"/>
			</g>
			<g>
				<path fill="#FFFFFF" d="M182.385,178.437c0,1.121-0.876,2.042-1.947,2.042h-1.926c-1.072,0-1.945-0.921-1.945-2.042v-2.024
					c0-1.122,0.873-2.042,1.945-2.042h1.926c1.071,0,1.947,0.92,1.947,2.042V178.437z"/>
			</g>
			<g>
				<path fill="#FFFFFF" d="M192.391,178.437c0,1.121-0.877,2.042-1.947,2.042h-1.928c-1.068,0-1.945-0.921-1.945-2.042v-2.024
					c0-1.122,0.877-2.042,1.945-2.042h1.928c1.07,0,1.947,0.92,1.947,2.042V178.437z"/>
			</g>
			<g>
				<path fill="#FFFFFF" d="M202.396,178.437c0,1.121-0.877,2.042-1.948,2.042h-1.925c-1.07,0-1.946-0.921-1.946-2.042v-2.024
					c0-1.122,0.876-2.042,1.946-2.042h1.925c1.071,0,1.948,0.92,1.948,2.042V178.437z"/>
			</g>
			<g>
				<path fill="#FFFFFF" d="M212.4,178.437c0,1.121-0.873,2.042-1.947,2.042h-1.922c-1.072,0-1.948-0.921-1.948-2.042v-2.024
					c0-1.122,0.876-2.042,1.948-2.042h1.922c1.074,0,1.947,0.92,1.947,2.042V178.437z"/>
			</g>
			<g>
				<path fill="#FFFFFF" d="M222.406,178.437c0,1.121-0.875,2.042-1.946,2.042h-1.925c-1.07,0-1.946-0.921-1.946-2.042v-2.024
					c0-1.122,0.876-2.042,1.946-2.042h1.925c1.071,0,1.946,0.92,1.946,2.042V178.437z"/>
			</g>
			<g>
				<path fill="#FFFFFF" d="M152.367,186.965c0,1.123-0.877,2.043-1.947,2.043h-1.925c-1.071,0-1.948-0.92-1.948-2.043v-2.023
					c0-1.125,0.877-2.043,1.948-2.043h1.925c1.07,0,1.947,0.918,1.947,2.043V186.965z"/>
			</g>
			<g>
				<path fill="#FFFFFF" d="M162.371,186.965c0,1.123-0.875,2.043-1.945,2.043h-1.925c-1.071,0-1.946-0.92-1.946-2.043v-2.023
					c0-1.125,0.875-2.043,1.946-2.043h1.925c1.07,0,1.945,0.918,1.945,2.043V186.965z"/>
			</g>
			<g>
				<path fill="#FFFFFF" d="M172.379,186.965c0,1.123-0.877,2.043-1.947,2.043h-1.926c-1.068,0-1.947-0.92-1.947-2.043v-2.023
					c0-1.125,0.879-2.043,1.947-2.043h1.926c1.07,0,1.947,0.918,1.947,2.043V186.965z"/>
			</g>
			<g>
				<path fill="#FFFFFF" d="M182.385,186.965c0,1.123-0.876,2.043-1.947,2.043h-1.926c-1.072,0-1.945-0.92-1.945-2.043v-2.023
					c0-1.125,0.873-2.043,1.945-2.043h1.926c1.071,0,1.947,0.918,1.947,2.043V186.965z"/>
			</g>
			<g>
				<path fill="#FFFFFF" d="M192.391,186.965c0,1.123-0.877,2.043-1.947,2.043h-1.928c-1.068,0-1.945-0.92-1.945-2.043v-2.023
					c0-1.125,0.877-2.043,1.945-2.043h1.928c1.07,0,1.947,0.918,1.947,2.043V186.965z"/>
			</g>
			<g>
				<path fill="#FFFFFF" d="M202.396,186.965c0,1.123-0.877,2.043-1.948,2.043h-1.925c-1.07,0-1.946-0.92-1.946-2.043v-2.023
					c0-1.125,0.876-2.043,1.946-2.043h1.925c1.071,0,1.948,0.918,1.948,2.043V186.965z"/>
			</g>
			<g>
				<path fill="#FFFFFF" d="M212.4,186.965c0,1.123-0.873,2.043-1.947,2.043h-1.922c-1.072,0-1.948-0.92-1.948-2.043v-2.023
					c0-1.125,0.876-2.043,1.948-2.043h1.922c1.074,0,1.947,0.918,1.947,2.043V186.965z"/>
			</g>
			<g>
				<path fill="#FFFFFF" d="M222.406,186.965c0,1.123-0.875,2.043-1.946,2.043h-1.925c-1.07,0-1.946-0.92-1.946-2.043v-2.023
					c0-1.125,0.876-2.043,1.946-2.043h1.925c1.071,0,1.946,0.918,1.946,2.043V186.965z"/>
			</g>
			<g>
				<path fill="#FFFFFF" d="M233.605,178.437c0,1.121-0.875,2.042-1.945,2.042h-1.926c-1.071,0-1.947-0.921-1.947-2.042v-2.024
					c0-1.122,0.876-2.042,1.947-2.042h1.926c1.07,0,1.945,0.92,1.945,2.042V178.437z"/>
			</g>
			<g>
				<path fill="#FFFFFF" d="M243.611,178.437c0,1.121-0.875,2.042-1.945,2.042h-1.926c-1.07,0-1.947-0.921-1.947-2.042v-2.024
					c0-1.122,0.877-2.042,1.947-2.042h1.926c1.07,0,1.945,0.92,1.945,2.042V178.437z"/>
			</g>
			<g>
				<path fill="#FFFFFF" d="M253.617,178.437c0,1.121-0.875,2.042-1.945,2.042h-1.926c-1.072,0-1.947-0.921-1.947-2.042v-2.024
					c0-1.122,0.875-2.042,1.947-2.042h1.926c1.07,0,1.945,0.92,1.945,2.042V178.437z"/>
			</g>
			<g>
				<path fill="#FFFFFF" d="M233.605,186.965c0,1.123-0.875,2.043-1.945,2.043h-1.926c-1.071,0-1.947-0.92-1.947-2.043v-2.023
					c0-1.125,0.876-2.043,1.947-2.043h1.926c1.07,0,1.945,0.918,1.945,2.043V186.965z"/>
			</g>
			<g>
				<path fill="#FFFFFF" d="M252.324,186.965c0,1.123-0.875,2.043-1.945,2.043H239.74c-1.07,0-1.947-0.92-1.947-2.043v-2.023
					c0-1.125,0.877-2.043,1.947-2.043h10.639c1.07,0,1.945,0.918,1.945,2.043V186.965z"/>
			</g>
			<g>
				<path fill="#FFFFFF" d="M253.617,186.965c0,1.123-0.875,2.043-1.945,2.043h-1.926c-1.072,0-1.947-0.92-1.947-2.043v-2.023
					c0-1.125,0.875-2.043,1.947-2.043h1.926c1.07,0,1.945,0.918,1.945,2.043V186.965z"/>
			</g>
			<g>
				<g>
					<path fill="#FFFFFF" d="M243.611,195.494c0,1.123-0.875,2.042-1.945,2.042h-1.926c-1.07,0-1.947-0.919-1.947-2.042v-2.026
						c0-1.122,0.877-2.042,1.947-2.042h1.926c1.07,0,1.945,0.92,1.945,2.042V195.494z"/>
				</g>
				<g>
					<path fill="#FFFFFF" d="M233.605,204.02c0,1.124-0.875,2.043-1.945,2.043h-1.926c-1.071,0-1.947-0.919-1.947-2.043v-2.021
						c0-1.123,0.876-2.043,1.947-2.043h1.926c1.07,0,1.945,0.92,1.945,2.043V204.02z"/>
				</g>
				<g>
					<path fill="#FFFFFF" d="M243.611,204.02c0,1.124-0.875,2.043-1.945,2.043h-1.926c-1.07,0-1.947-0.919-1.947-2.043v-2.021
						c0-1.123,0.877-2.043,1.947-2.043h1.926c1.07,0,1.945,0.92,1.945,2.043V204.02z"/>
				</g>
				<g>
					<path fill="#FFFFFF" d="M253.617,204.02c0,1.124-0.875,2.043-1.945,2.043h-1.926c-1.072,0-1.947-0.919-1.947-2.043v-2.021
						c0-1.123,0.875-2.043,1.947-2.043h1.926c1.07,0,1.945,0.92,1.945,2.043V204.02z"/>
				</g>
			</g>
			<g>
				<path fill="#FFFFFF" d="M161.701,195.494c0,1.123-0.874,2.042-1.945,2.042h-11.261c-1.071,0-1.948-0.919-1.948-2.042v-2.026
					c0-1.122,0.877-2.042,1.948-2.042h11.261c1.071,0,1.945,0.92,1.945,2.042V195.494z"/>
			</g>
			<g>
				<path fill="#FFFFFF" d="M162.371,195.494c0,1.123-0.875,2.042-1.945,2.042h-1.925c-1.071,0-1.946-0.919-1.946-2.042v-2.026
					c0-1.122,0.875-2.042,1.946-2.042h1.925c1.07,0,1.945,0.92,1.945,2.042V195.494z"/>
			</g>
			<g>
				<path fill="#FFFFFF" d="M172.379,195.494c0,1.123-0.877,2.042-1.947,2.042h-1.926c-1.068,0-1.947-0.919-1.947-2.042v-2.026
					c0-1.122,0.879-2.042,1.947-2.042h1.926c1.07,0,1.947,0.92,1.947,2.042V195.494z"/>
			</g>
			<g>
				<path fill="#FFFFFF" d="M182.385,195.494c0,1.123-0.876,2.042-1.947,2.042h-1.926c-1.072,0-1.945-0.919-1.945-2.042v-2.026
					c0-1.122,0.873-2.042,1.945-2.042h1.926c1.071,0,1.947,0.92,1.947,2.042V195.494z"/>
			</g>
			<g>
				<path fill="#FFFFFF" d="M192.391,195.494c0,1.123-0.877,2.042-1.947,2.042h-1.928c-1.068,0-1.945-0.919-1.945-2.042v-2.026
					c0-1.122,0.877-2.042,1.945-2.042h1.928c1.07,0,1.947,0.92,1.947,2.042V195.494z"/>
			</g>
			<g>
				<path fill="#FFFFFF" d="M202.396,195.494c0,1.123-0.877,2.042-1.948,2.042h-1.925c-1.07,0-1.946-0.919-1.946-2.042v-2.026
					c0-1.122,0.876-2.042,1.946-2.042h1.925c1.071,0,1.948,0.92,1.948,2.042V195.494z"/>
			</g>
			<g>
				<path fill="#FFFFFF" d="M212.4,195.494c0,1.123-0.873,2.042-1.947,2.042h-1.922c-1.072,0-1.948-0.919-1.948-2.042v-2.026
					c0-1.122,0.876-2.042,1.948-2.042h1.922c1.074,0,1.947,0.92,1.947,2.042V195.494z"/>
			</g>
			<g>
				<path fill="#FFFFFF" d="M222.406,195.494c0,1.123-0.875,2.042-1.946,2.042h-1.925c-1.07,0-1.946-0.919-1.946-2.042v-2.026
					c0-1.122,0.876-2.042,1.946-2.042h1.925c1.071,0,1.946,0.92,1.946,2.042V195.494z"/>
			</g>
			<g>
				<path fill="#FFFFFF" d="M152.367,204.02c0,1.124-0.877,2.043-1.947,2.043h-1.925c-1.071,0-1.948-0.919-1.948-2.043v-2.021
					c0-1.123,0.877-2.043,1.948-2.043h1.925c1.07,0,1.947,0.92,1.947,2.043V204.02z"/>
			</g>
			<g>
				<path fill="#FFFFFF" d="M162.371,204.02c0,1.124-0.875,2.043-1.945,2.043h-1.925c-1.071,0-1.946-0.919-1.946-2.043v-2.021
					c0-1.123,0.875-2.043,1.946-2.043h1.925c1.07,0,1.945,0.92,1.945,2.043V204.02z"/>
			</g>
			<g>
				<path fill="#FFFFFF" d="M202.396,204.02c0,1.124-0.877,2.043-1.948,2.043h-31.942c-1.068,0-1.947-0.919-1.947-2.043v-2.021
					c0-1.123,0.879-2.043,1.947-2.043h31.942c1.071,0,1.948,0.92,1.948,2.043V204.02z"/>
			</g>
			<g>
				<path fill="#FFFFFF" d="M212.4,204.02c0,1.124-0.873,2.043-1.947,2.043h-1.922c-1.072,0-1.948-0.919-1.948-2.043v-2.021
					c0-1.123,0.876-2.043,1.948-2.043h1.922c1.074,0,1.947,0.92,1.947,2.043V204.02z"/>
			</g>
			<g>
				<path fill="#FFFFFF" d="M222.406,204.02c0,1.124-0.875,2.043-1.946,2.043h-1.925c-1.07,0-1.946-0.919-1.946-2.043v-2.021
					c0-1.123,0.876-2.043,1.946-2.043h1.925c1.071,0,1.946,0.92,1.946,2.043V204.02z"/>
			</g>
		</g>
	</g>
</g>
<polyline fill="none" stroke="#FFFFFF" stroke-width="2" stroke-linecap="round" stroke-linejoin="round" stroke-miterlimit="10" points="
	240.701,168.832 240.701,158.038 208.347,158.038 208.347,141.821 "/>
</svg>
