<?xml version="1.0" encoding="utf-8"?>
<!-- Generator: Adobe Illustrator 16.0.0, SVG Export Plug-In . SVG Version: 6.00 Build 0)  -->
<!DOCTYPE svg PUBLIC "-//W3C//DTD SVG 1.1//EN" "http://www.w3.org/Graphics/SVG/1.1/DTD/svg11.dtd">
<svg version="1.1" id="Layer_1" xmlns="http://www.w3.org/2000/svg" xmlns:xlink="http://www.w3.org/1999/xlink" x="0px" y="0px"
	 width="335.986px" height="235.19px" viewBox="0 0 335.986 235.19" enable-background="new 0 0 335.986 235.19"
	 xml:space="preserve">
<g>
	<g>
		<rect fill="#F36652" width="335.986" height="235.19"/>
	</g>
</g>
<g>
	
		<line fill="none" stroke="#FFFFFF" stroke-width="2" stroke-linejoin="round" stroke-miterlimit="10" x1="95.552" y1="86.749" x2="102.873" y2="94.069"/>
	
		<line fill="none" stroke="#FFFFFF" stroke-width="2" stroke-linejoin="round" stroke-miterlimit="10" x1="95.552" y1="94.069" x2="102.873" y2="86.749"/>
</g>
<g>
	
		<line fill="none" stroke="#FFFFFF" stroke-width="2" stroke-linejoin="round" stroke-miterlimit="10" x1="308.778" y1="127.821" x2="316.101" y2="135.142"/>
	
		<line fill="none" stroke="#FFFFFF" stroke-width="2" stroke-linejoin="round" stroke-miterlimit="10" x1="308.778" y1="135.142" x2="316.101" y2="127.821"/>
</g>
<g>
	
		<line fill="none" stroke="#FFFFFF" stroke-width="2" stroke-linejoin="round" stroke-miterlimit="10" x1="113.15" y1="183.555" x2="120.472" y2="190.875"/>
	
		<line fill="none" stroke="#FFFFFF" stroke-width="2" stroke-linejoin="round" stroke-miterlimit="10" x1="113.15" y1="190.875" x2="120.472" y2="183.555"/>
</g>
<g>
	<g>
		
			<rect x="54.33" y="26.927" transform="matrix(-1 -0.0054 0.0054 -1 168.6189 93.5854)" fill="#FFFFFF" width="60.211" height="39.279"/>
		<polyline fill="#FFFFFF" points="105.36,66.315 105.315,74.708 94.22,66.256 		"/>
	</g>
	
		<rect x="93.207" y="33.484" transform="matrix(-1 -0.0053 0.0053 -1 201.5308 82.7196)" fill="#F36652" width="15.338" height="15.212"/>
	
		<rect x="103.982" y="55.052" transform="matrix(-1 -0.0052 0.0052 -1 212.1391 115.1004)" fill="#F36652" width="4.476" height="4.441"/>
	
		<rect x="60.414" y="33.34" transform="matrix(-1 -0.0053 0.0053 -1 147.8862 71.5159)" fill="#258ACE" width="27.249" height="4.44"/>
	
		<rect x="60.356" y="44.105" transform="matrix(-1 -0.0054 0.0054 -1 147.7108 93.0543)" fill="#F36652" width="27.248" height="4.446"/>
	
		<rect x="60.3" y="54.911" transform="matrix(-1 -0.0054 0.0054 -1 159.502 114.6917)" fill="#258ACE" width="39.212" height="4.44"/>
</g>
<g>
	<path fill="#258ACE" d="M238.756,153.459c0,1.772-1.437,3.21-3.21,3.21H120.399c-1.775,0-3.211-1.438-3.211-3.21V87.057
		c0-1.772,1.436-3.208,3.211-3.208h115.146c1.773,0,3.21,1.436,3.21,3.208V153.459z"/>
	<rect x="122.083" y="89.067" fill="#FAF9F9" width="112.029" height="62.383"/>
	<path fill="#24A8BF" d="M179.31,86.5c0,0.737-0.598,1.336-1.34,1.336c-0.736,0-1.336-0.599-1.336-1.336
		c0-0.738,0.6-1.338,1.336-1.338C178.712,85.162,179.31,85.762,179.31,86.5z"/>
	<path fill="#0E3C54" d="M248.715,169.604c0.231,0.328-2.069,0.558-4.122,0.558H111.349c-2.051,0-4.314-0.271-4.08-0.6l9.496-12.298
		c0.234-0.328,1.859-0.595,3.635-0.595h115.146c1.773,0,3.398,0.267,3.631,0.595L248.715,169.604z"/>
	<path fill="#124E6E" d="M248.94,171.107c0,0.788-1.453,1.428-3.247,1.428H110.251c-1.793,0-3.248-0.64-3.248-1.428v-0.982
		c0-0.789,1.455-1.427,3.248-1.427h135.442c1.794,0,3.247,0.638,3.247,1.427V171.107z"/>
	<polygon fill="#FAF9F9" points="120.691,158.264 119.575,159.78 236.871,159.78 235.729,158.264 	"/>
	<polygon fill="#CFAB48" points="119.169,160.683 118.087,162.198 238.665,162.198 237.479,160.683 	"/>
	<polygon fill="#FAF9F9" points="120.132,159.021 116.812,164.507 240.175,164.507 236.3,159.021 	"/>
	<g>
		<polygon fill="#FAF9F9" points="179.411,167.721 198.157,167.721 197.394,165.2 179.411,165.2 		"/>
		<polygon fill="#FAF9F9" points="183.647,165.2 159.054,165.2 158.44,167.721 183.647,167.721 		"/>
	</g>
</g>
<g>
	<path fill="#EEC64A" d="M227.394,203.933h38.58c5.244,0,9.498-4.251,9.498-9.496c0-5.244-4.254-9.497-9.498-9.497h-38.58V203.933z"
		/>
	<g>
		<rect x="214.794" y="187.64" fill="#DEDEDE" width="12.6" height="13.595"/>
		<g>
			<rect x="221.106" y="196.565" fill="#032E4F" width="1.861" height="2.688"/>
			<rect x="221.106" y="189.618" fill="#032E4F" width="1.861" height="2.689"/>
		</g>
	</g>
	<circle fill="#032E4F" cx="265.157" cy="194.437" r="7.222"/>
</g>
<g>
	<path fill="#258ACE" d="M194.385,13.334h-38.581c-5.242,0-9.496,4.252-9.496,9.497c0,5.244,4.254,9.496,9.496,9.496h38.581V13.334z
		"/>
	<g>
		<rect x="194.385" y="16.033" fill="#DEDEDE" width="12.602" height="13.595"/>
		<g>
			<rect x="198.812" y="18.014" fill="#032E4F" width="1.861" height="2.688"/>
			<rect x="198.812" y="24.96" fill="#032E4F" width="1.861" height="2.689"/>
		</g>
	</g>
</g>
<g>
	<path fill="#0E3C54" d="M161.662,61.038c-0.679,0-1.344,0.028-2.005,0.078c0.863,1.312,1.529,2.762,1.971,4.306
		c0.01,0,0.024,0,0.034,0c4.032,0,8.405,5.559,10.53,14.027h-13.083c-0.747,1.468-1.571,2.944-2.426,4.385h16.36
		c0.296,2.08,0.459,4.277,0.459,6.576c0,2.616-0.216,5.117-0.593,7.454h-22.499c-0.201-1.277-0.354-2.608-0.455-3.979
		c-0.244,0.339-0.461,0.626-0.621,0.842l-2.796,3.7l-0.595-0.791c0.01,0.077,0.016,0.156,0.025,0.228h-8.158
		c-0.738-2.354-1.135-4.859-1.135-7.454c0-1.784,0.197-3.517,0.555-5.193c-1.055-1.695-2.086-3.489-3.015-5.278
		c-1.245,3.253-1.923,6.778-1.923,10.472c0,16.218,13.146,29.369,29.368,29.369c12.01,0,22.328-7.209,26.886-17.536h0.295v-0.699
		c1.41-3.435,2.193-7.192,2.193-11.134C191.036,74.189,177.887,61.038,161.662,61.038z M171.896,67.622
		c5.32,2.393,9.655,6.597,12.221,11.827h-7.405C175.675,74.798,174.011,70.738,171.896,67.622z M139.665,102.243h7.152
		c1.047,4.286,2.635,8.036,4.617,10.955C146.411,110.935,142.263,107.065,139.665,102.243z M161.662,115.395
		c-3.888,0-8.097-5.18-10.296-13.151h20.596C169.761,110.215,165.552,115.395,161.662,115.395z M171.896,113.198
		c1.979-2.919,3.568-6.669,4.611-10.955h7.158C181.062,107.065,176.913,110.935,171.896,113.198z M185.515,97.864h-8.16
		c0.344-2.387,0.53-4.88,0.53-7.454c0-2.263-0.147-4.467-0.413-6.576h8.297c0.575,2.097,0.883,4.3,0.883,6.576
		C186.651,93.005,186.253,95.51,185.515,97.864z"/>
	<path fill="#EEC64A" d="M146.539,57.524c-6.739,0-12.2,5.468-12.2,12.204c0,6.737,12.2,22.884,12.2,22.884
		s12.198-16.146,12.198-22.884C158.737,62.992,153.274,57.524,146.539,57.524z M146.539,75.063c-3.374,0-6.103-2.731-6.103-6.1
		s2.729-6.1,6.103-6.1c3.366,0,6.099,2.731,6.099,6.1S149.905,75.063,146.539,75.063z"/>
</g>
<g>
	<g>
		<path fill="#0E3C54" d="M302.673,113.465c0,3.011-2.463,5.474-5.473,5.474h-84.859c-3.011,0-5.473-2.463-5.473-5.474V60.986
			c0-3.013,2.462-5.475,5.473-5.475H297.2c3.01,0,5.473,2.462,5.473,5.475V113.465z"/>
	</g>
	<g>
		<path fill="#FFFFFF" d="M295.2,108.245c0,2.414-1.975,4.387-4.387,4.387h-72.088c-2.414,0-4.385-1.973-4.385-4.387V66.206
			c0-2.413,1.971-4.387,4.385-4.387h72.088c2.412,0,4.387,1.974,4.387,4.387V108.245z"/>
	</g>
	<g>
		<g>
			<circle fill="#F36652" cx="254.77" cy="87.225" r="17.385"/>
		</g>
		<g>
			<polygon fill="#FFFFFF" points="249.844,78.381 249.844,87.225 249.844,96.072 261.444,87.225 			"/>
		</g>
	</g>
</g>
<polyline fill="none" stroke="#032E4F" stroke-width="2" stroke-linecap="round" stroke-linejoin="round" stroke-miterlimit="10" stroke-dasharray="6" points="
	69.296,200.094 52.962,200.094 52.962,178.932 21.728,178.932 21.728,219.022 135.604,219.022 135.604,200.094 183.647,200.094 
	183.647,215.087 295.2,215.087 295.2,175.243 315.397,175.243 315.397,153.353 265.157,153.353 265.157,116.46 "/>
<g>
	<g>
		<g>
			<rect x="93.384" y="194.436" fill="#DEDEDE" width="11.656" height="11.317"/>
			<g>
				<rect x="98.235" y="196.083" fill="#032E4F" width="1.549" height="2.24"/>
				<rect x="98.235" y="201.866" fill="#032E4F" width="1.549" height="2.241"/>
			</g>
		</g>
		<rect x="93.384" y="194.436" fill="#ADADAD" width="0.777" height="11.317"/>
		<path fill="#032E4F" d="M93.384,191H75.94c-1.115,0-2.02,0.905-2.02,2.021v14.146c0,1.116,0.904,2.021,2.02,2.021h17.443V191z"/>
	</g>
	<rect x="64.671" y="197.482" fill="#FFD359" width="9.25" height="5.222"/>
</g>
<polyline fill="none" stroke="#032E4F" stroke-width="2" stroke-linecap="round" stroke-linejoin="round" stroke-miterlimit="10" stroke-dasharray="6" points="
	278.038,39.727 312.854,39.727 312.854,19.357 230.214,19.357 230.214,37.154 218.616,37.154 218.616,46.802 129.21,46.802 
	129.21,16.033 26.987,16.033 26.987,50.869 42.306,50.869 42.306,86.499 "/>
<g>
	<polygon fill="#FAF9F9" points="26.987,157.173 86.247,157.173 86.247,98.647 67.847,78.736 26.987,78.736 	"/>
</g>
<polygon fill="#3D3D3D" points="67.772,78.736 67.772,98.647 86.247,98.647 67.847,78.736 "/>
<g>
	<path fill="#0E3C54" d="M55.597,137.461l0.068-0.031l3.818,2.909l-0.614,4.772l-4.427,1.846l-0.064-0.05
		c0.125,1.87,0.474,3.699,1.026,5.479l0.044-0.068l4.805,0.106l2.311,4.22l-2.508,4.097l-0.074,0.004
		c1.142,1.375,2.457,2.632,3.918,3.731l0.002-0.102l3.965-2.703l4.322,2.078l0.363,4.799l-0.068,0.041
		c1.839,0.478,3.693,0.713,5.533,0.746l-0.053-0.067l1.611-4.522l4.725-0.872l3.113,3.666l-0.026,0.076
		c1.724-0.695,3.369-1.58,4.9-2.656l-0.085-0.016l-1.355-4.608l3.318-3.477l4.669,1.121l0.021,0.088
		c0.513-0.812,0.986-1.668,1.401-2.566c0.393-0.809,0.717-1.636,1.01-2.467l-0.084,0.038l-3.809-2.938l0.633-4.755l4.438-1.842
		l0.076,0.051c-0.129-1.863-0.473-3.709-1.017-5.488l-0.05,0.075l-4.801-0.126l-2.295-4.223l2.512-4.091l0.093,0.01
		c-1.185-1.424-2.539-2.728-4.052-3.853l0.006,0.089l-3.957,2.723l-4.344-2.066l-0.379-4.793l0.078-0.049
		c-1.838-0.451-3.692-0.696-5.535-0.722l0.049,0.072l-1.594,4.531l-4.717,0.877l-3.123-3.651l0.02-0.065
		c-1.721,0.694-3.369,1.58-4.898,2.667l0.082,0.012l1.373,4.6l-3.298,3.498l-4.671-1.117l-0.033-0.085
		c-0.49,0.802-0.945,1.634-1.355,2.501C56.228,135.754,55.884,136.604,55.597,137.461z M82.347,136.935
		c4.574,2.152,6.526,7.615,4.371,12.185c-2.154,4.573-7.616,6.534-12.186,4.375c-4.581-2.157-6.532-7.616-4.377-12.189
		C72.315,136.731,77.771,134.775,82.347,136.935z"/>
	<path fill="#0E3C54" d="M33.419,112.174l0.051-0.025l2.898,1.55l0.109,3.301l-2.797,1.738l-0.051-0.03
		c0.288,1.251,0.729,2.457,1.297,3.604l0.021-0.056l3.264-0.454l2.022,2.605l-1.241,3.051l-0.053,0.014
		c0.93,0.801,1.953,1.509,3.063,2.093l-0.009-0.064l2.391-2.27l3.156,0.94l0.771,3.207l-0.043,0.038
		c1.301,0.119,2.576,0.076,3.828-0.105l-0.041-0.038l0.594-3.242l3.108-1.104l2.507,2.143l-0.006,0.054
		c1.088-0.662,2.107-1.44,3.029-2.334l-0.064-0.004l-1.42-2.974l1.867-2.718l3.29,0.248l0.021,0.06
		c0.259-0.612,0.485-1.24,0.671-1.893c0.172-0.594,0.304-1.189,0.412-1.783l-0.055,0.034l-2.904-1.572l-0.087-3.288l2.806-1.737
		l0.053,0.029c-0.293-1.247-0.727-2.465-1.289-3.608l-0.025,0.056l-3.266,0.441l-2.016-2.607l1.253-3.048h0.062
		c-0.96-0.843-2.018-1.573-3.164-2.172l0.01,0.06l-2.377,2.281l-3.17-0.928l-0.779-3.204l0.044-0.043
		c-1.291-0.105-2.579-0.067-3.828,0.119l0.042,0.042l-0.584,3.246l-3.102,1.109l-2.516-2.13l0.008-0.05
		c-1.091,0.661-2.109,1.44-3.026,2.347h0.056l1.436,2.963l-1.852,2.729l-3.287-0.241l-0.029-0.056
		c-0.248,0.594-0.465,1.211-0.645,1.842C33.661,110.946,33.524,111.562,33.419,112.174z M51.487,108.89
		c3.332,0.957,5.255,4.447,4.293,7.777c-0.961,3.334-4.441,5.256-7.773,4.294c-3.339-0.96-5.261-4.438-4.299-7.775
		C44.668,109.852,48.147,107.928,51.487,108.89z"/>
</g>
<g>
	<rect x="247.302" y="35.432" fill="#DEDEDE" width="10.119" height="8.591"/>
	<rect x="274.64" y="35.889" fill="#EEC64A" width="6.799" height="7.677"/>
	<rect x="256.644" y="35.432" opacity="0.6" fill="#ADADAD" width="1.004" height="8.591"/>
	<path fill="#032E4F" d="M257.28,32.651h11.578c3.908,0,7.075,3.169,7.075,7.075c0,3.908-3.167,7.075-7.075,7.075H257.28V32.651z"/>
</g>
<rect x="134.294" y="126.214" fill="#F36652" width="32.882" height="5.268"/>
<rect x="174.291" y="126.214" fill="#F36652" width="47.149" height="5.268"/>
<rect x="188.559" y="136.464" fill="#F36652" width="32.882" height="5.268"/>
<rect x="134.294" y="136.464" fill="#F36652" width="47.148" height="5.268"/>
</svg>
